<svg width="25" height="32" viewBox="0 0 25 32" fill="none" xmlns="http://www.w3.org/2000/svg">
<g clip-path="url(#clip0_72_55)">
<path fill-rule="evenodd" clip-rule="evenodd" d="M20.75 7H14.75C14.5172 6.99998 14.2976 7.10804 14.1556 7.2925L8.15562 15.0934L7.25 14.1897C6.96865 13.908 6.58686 13.7498 6.18875 13.7498C5.79064 13.7498 5.40885 13.908 5.1275 14.1897L3.93781 15.3803C3.65643 15.6616 3.49835 16.0432 3.49835 16.4411C3.49835 16.839 3.65643 17.2206 3.93781 17.5019L5.81281 19.3769L3.18781 22.0019C2.90643 22.2832 2.74835 22.6648 2.74835 23.0627C2.74835 23.4605 2.90643 23.8421 3.18781 24.1234L4.3775 25.3122C4.96321 25.8975 5.91242 25.8975 6.49813 25.3122L9.12313 22.6872L10.9981 24.5622C11.2795 24.8439 11.6613 25.0021 12.0594 25.0021C12.4575 25.0021 12.8393 24.8439 13.1206 24.5622L14.3103 23.3716C14.5917 23.0902 14.7498 22.7087 14.7498 22.3108C14.7498 21.9129 14.5917 21.5313 14.3103 21.25L13.4066 20.3463L21.2075 14.3462C21.3925 14.2039 21.5006 13.9834 21.5 13.75V7.75C21.5 7.33579 21.1642 7 20.75 7V7ZM5.43969 24.25L4.25 23.0613L6.875 20.4363L8.06375 21.625L5.43969 24.25ZM12.0594 23.5L5 16.4416L6.19063 15.25L13.25 22.3103L12.0594 23.5ZM20 13.3806L12.3369 19.2756L11.3112 18.25L16.0306 13.5306C16.3234 13.2376 16.3232 12.7626 16.0302 12.4698C15.7371 12.177 15.2622 12.1773 14.9694 12.4703L10.25 17.1888L9.22531 16.1631L15.1194 8.5H20V13.3806Z" fill="#9E9E47"/>
</g>
<defs>
<clipPath id="clip0_72_55">
<rect width="24" height="24" fill="white" transform="translate(0.5 4)"/>
</clipPath>
</defs>
</svg>
