<svg width="20" height="25" viewBox="0 0 20 25" fill="none" xmlns="http://www.w3.org/2000/svg">
<path d="M13 23.5V14.1666C13 13.8572 12.8946 13.5605 12.7071 13.3417C12.5196 13.1229 12.2652 13 12 13H8C7.73478 13 7.48043 13.1229 7.29289 13.3417C7.10536 13.5605 7 13.8572 7 14.1666V23.5M1 10.6666C0.99993 10.3272 1.06333 9.99188 1.18579 9.68399C1.30824 9.37609 1.4868 9.10308 1.709 8.88398L8.709 1.88515C9.06999 1.52921 9.52736 1.33392 10 1.33392C10.4726 1.33392 10.93 1.52921 11.291 1.88515L18.291 8.88398C18.5132 9.10308 18.6918 9.37609 18.8142 9.68399C18.9367 9.99188 19.0001 10.3272 19 10.6666V21.1666C19 21.7855 18.7893 22.379 18.4142 22.8166C18.0391 23.2541 17.5304 23.5 17 23.5H3C2.46957 23.5 1.96086 23.2541 1.58579 22.8166C1.21071 22.379 1 21.7855 1 21.1666V10.6666Z" stroke="#9E9E47" stroke-width="2" stroke-linecap="round" stroke-linejoin="round"/>
</svg>
