<svg width="385" height="118" viewBox="0 0 385 118" fill="none" xmlns="http://www.w3.org/2000/svg">
<g filter="url(#filter0_d_17_379)">
<path d="M360.055 28.6655C362.743 28.6655 365.216 29.2781 367.389 30.5805L367.388 30.5815C369.83 32.0276 372.295 34.3783 374.796 37.4584C377.341 40.5911 379.082 43.6806 379.788 46.7153C381.061 51.9898 381.721 56.6917 381.721 60.7914C381.721 62.9272 381.586 65.1624 381.319 67.4946L381.318 67.4975C381.055 69.7646 380.651 72.6628 380.11 76.183L379.803 78.1743L377.793 78.2983L363.092 79.2055L360.334 79.3754L360.441 76.6127C360.486 75.4531 360.509 73.7511 360.509 71.4887C360.509 62.2214 359.269 54.4785 356.875 48.1918H356.874C356.617 47.545 356.383 47.0481 356.179 46.6752C355.733 47.3212 355.196 48.3238 354.585 49.7651C354.307 50.4351 354.06 51.2377 353.854 52.187C353.665 53.167 353.512 54.292 353.402 55.5678C353.315 56.8393 353.27 58.3602 353.27 60.1381C353.27 63.7763 353.477 68.4361 353.897 74.1332L354.072 76.5151L351.701 76.7993L334.433 78.8657L331.981 79.1596L331.658 76.7114C331.374 74.5674 331.114 72.4352 330.878 70.3149C330.641 68.1895 330.45 66.2161 330.307 64.3959L330.305 64.3608C330.184 62.4871 330.124 60.4869 330.124 58.3618C330.124 57.4185 330.172 56.1084 330.262 54.4565L329.632 33.4164L329.565 31.1567L331.806 30.8627L345.628 29.0493L346.988 28.8705L347.869 29.9233L348.778 31.0092C350.755 30.3614 352.524 29.8434 354.08 29.4623V29.4633C356.123 28.939 358.117 28.6655 360.055 28.6655Z" fill="#FFCB05" stroke="#3866C3" stroke-width="5"/>
<path d="M317.994 31.0587C320.034 31.0587 322.014 31.3292 323.925 31.8732L323.926 31.8712C325.843 32.3929 327.797 33.2284 329.786 34.3429H329.787C331.801 35.4546 333.453 36.977 334.71 38.8898C335.931 40.689 336.8 42.7034 337.332 44.9083H337.333C337.879 47.0542 338.148 49.2805 338.148 51.5802C338.148 53.4432 337.997 55.2551 337.694 57.0128L337.695 57.0138C337.417 58.7577 337.022 60.3893 336.499 61.8996C335.982 63.3929 335.348 64.7339 334.578 65.8878L334.579 65.8888C333.016 68.2938 331.318 70.4008 329.479 72.1915C327.666 73.9573 325.78 75.4199 323.816 76.5538L323.804 76.5607L323.794 76.5665C321.886 77.6419 319.955 78.4495 318.005 78.9699C317.994 78.9728 317.984 78.9757 317.973 78.9787C317.971 78.9794 317.968 78.9809 317.966 78.9816L317.965 78.9806C316.057 79.5157 314.143 79.7902 312.226 79.7902C309.961 79.7902 307.78 79.4188 305.697 78.6681C303.682 77.9574 301.893 76.9913 300.371 75.7413L300.35 75.7247L300.33 75.7072C297.879 73.6058 296.033 70.8343 294.738 67.4972L294.735 67.4913C293.448 64.1483 292.81 60.6273 292.81 56.9474C292.81 50.6325 294.59 45.2867 298.35 41.1583C301.289 37.9247 304.395 35.4152 307.683 33.7042L308.305 33.3869C311.422 31.8497 314.659 31.0587 317.994 31.0587ZM314.797 45.7101C314.188 46.3424 313.687 47.0344 313.288 47.7921C312.841 48.6596 312.651 49.468 312.651 50.2394C312.651 51.5754 313.176 52.6109 314.552 53.5187H314.552C316.15 54.5687 317.459 54.9552 318.521 54.9552C319.554 54.9552 320.446 54.6246 321.294 53.88C322.078 53.1712 322.732 52.288 323.247 51.1964C322.269 51.7485 321.198 52.086 320.034 52.0861C318.927 52.0861 317.864 51.7812 316.929 51.1388L316.84 51.0773L316.755 51.007C315.206 49.7297 314.791 47.7904 314.791 46.0324C314.791 45.9245 314.792 45.8171 314.797 45.7101Z" fill="#FFCB05" stroke="#3866C3" stroke-width="5"/>
<path d="M291.041 16.7666L304.299 80.333L304.996 83.6738L301.6 83.331L281.133 81.2646L279.242 81.0732L278.92 79.2002L276.474 64.9795L275.844 66.2324L273.688 70.5039L271.413 66.2949L269.867 63.4365L268.89 73.6484L268.69 75.7461L266.589 75.9033L246.719 77.3896L243.772 77.6103L244.043 74.6679L248.93 21.5088L249.126 19.3906L251.248 19.2431L268.551 18.0469L270.083 17.9404L270.87 19.2597L272.823 22.5351L275.036 16.6836L275.631 15.1113L277.31 15.0683L288.528 14.7783L290.614 14.7246L291.041 16.7666Z" fill="#FFCB05" stroke="#3866C3" stroke-width="5"/>
<path d="M225.112 28.7101L225.334 31.9552C227.371 31.3148 229.445 30.9865 231.55 30.9865C235.518 30.9865 239.459 32.1485 243.343 34.3429C245.358 35.4546 247.009 36.9771 248.266 38.8898C249.487 40.689 250.356 42.7034 250.888 44.9083H250.889C251.436 47.0542 251.705 49.2805 251.705 51.5802C251.705 53.4432 251.554 55.2551 251.251 57.0128L251.252 57.0138C250.974 58.7577 250.578 60.3893 250.055 61.8996C249.539 63.3904 248.907 64.7293 248.138 65.882L248.139 65.8829C246.057 69.1041 243.743 71.7813 241.18 73.8634C238.68 75.8948 236.098 77.4094 233.432 78.3439C231.689 78.9548 229.925 79.3622 228.143 79.5656L229.72 106.261L229.868 108.767L227.362 108.904L211.536 109.775L209.03 109.912L208.902 107.405L206.51 60.338L206.507 60.2746V59.9347C206.422 58.8215 206.372 57.9183 206.368 57.2628L205.882 47.4132L203.573 47.9288L199.848 48.7589L200.575 45.0128L202.297 36.129L202.549 34.8331L203.76 34.3097L221.626 26.5861L224.87 25.1837L225.112 28.7101ZM228.352 45.7521C228.183 45.9314 228.017 46.1159 227.86 46.3087C227.038 47.3415 226.57 48.3006 226.354 49.1876C226.387 50.0777 226.594 50.9701 227 51.879C227.507 52.9378 227.931 53.3861 228.152 53.546C229.731 54.5747 231.025 54.9552 232.078 54.9552C233.11 54.9552 234.003 54.6246 234.85 53.88C235.634 53.1711 236.29 52.2882 236.804 51.1964C235.826 51.7487 234.755 52.086 233.59 52.0861C232.484 52.0861 231.42 51.7812 230.486 51.1388L230.396 51.0773L230.311 51.007C228.763 49.7297 228.347 47.7904 228.347 46.0324C228.347 45.9386 228.349 45.8452 228.352 45.7521Z" fill="#FFCB05" stroke="#3866C3" stroke-width="5"/>
<path d="M141.272 7.33144L143.626 45.227L154.85 38.8881L155.604 38.4623L156.461 38.5941L171.724 40.9516L177.391 41.8266L172.893 45.3832L155.489 59.143L171.716 71.7631L172.612 72.4594L172.677 73.5912L173.522 88.1322L173.831 93.4682L169.537 90.2855L146.141 72.9447L146.76 85.4711L146.887 88.0434L144.312 88.0932L127.572 88.4203L125.148 88.4672L125.026 86.0453L122.01 26.0434L119.751 26.5668L116.003 27.434L116.733 23.6566L118.456 14.7357L118.707 13.4398L119.919 12.9154L137.785 5.1918L141.051 3.77969L141.272 7.33144Z" fill="#FFCB05" stroke="#3866C3" stroke-width="5"/>
<path d="M157.277 3.50879L181.472 5.57617L183.908 5.78418L183.754 8.22266C183.618 10.4059 183.548 12.9512 183.548 15.8633C183.548 20.2241 183.71 25.0887 184.036 30.46L184.17 32.4482C184.494 37.0203 184.879 41.1195 185.324 44.749C185.578 46.8213 185.83 48.4909 186.079 49.7725C186.304 50.9334 186.506 51.6611 186.655 52.0596L186.715 52.2109L186.721 52.2246C187.264 53.4866 187.751 54.2351 188.123 54.6318C188.224 54.7399 188.302 54.8046 188.356 54.8447C188.457 54.7814 188.638 54.6424 188.881 54.3545C189.445 53.6874 189.982 52.7539 190.447 51.4834L190.452 51.4697L190.458 51.4561C191.292 49.2542 191.807 45.2384 191.807 39.1064C191.807 36.6819 191.761 34.3438 191.67 32.0918C191.553 29.8357 191.402 27.3356 191.215 24.5908L191.213 24.5693C191.05 21.8223 190.863 18.9293 190.653 15.8906L190.652 15.8809L190.651 15.8701C190.464 12.8033 190.345 10.7286 190.297 9.66602L190.17 6.83691L192.993 7.06152L211.703 8.54785L213.684 8.70605L213.977 10.6719C214.458 13.8971 214.839 17.6622 215.124 21.958L215.232 23.5742C215.469 27.3432 215.587 31.0947 215.587 34.8281C215.587 39.5681 215.373 44.0186 214.941 48.1768C214.506 52.3619 213.774 56.0895 212.725 59.3369C212.096 61.3115 210.911 63.4088 209.3 65.6055L209.293 65.6162C207.689 67.7784 205.945 69.7694 204.06 71.585C202.218 73.359 200.53 74.7586 199.01 75.71L198.974 75.7324L198.938 75.7539C195.683 77.6436 191.814 78.5205 187.45 78.5205C184.126 78.5205 180.837 77.9797 177.592 76.9082L177.569 76.9004C174.311 75.7894 171.432 74.173 168.966 72.0361L168.933 72.0068C167.089 70.3506 165.663 67.9944 164.548 65.1475L164.539 65.1221C163.461 62.2796 162.593 58.9421 161.918 55.1357L161.916 55.127L161.915 55.1182C161.268 51.3129 160.801 47.4133 160.514 43.4199C160.229 39.4461 160.086 35.53 160.086 31.6729C160.086 26.7931 160.276 22.4322 160.662 18.5996L156.749 17.6377L154.905 17.1846L154.846 15.2871L154.565 6.07617L154.479 3.27051L157.277 3.50879Z" fill="#FFCB05" stroke="#3866C3" stroke-width="5"/>
<path d="M106.289 32.4833C110.219 32.4833 113.879 33.5004 117.223 35.5175L117.888 35.9345L117.895 35.9384L117.902 35.9432C119.711 37.1383 121.274 38.7569 122.615 40.7284C123.899 42.5618 124.927 44.3225 125.665 46.0057L126.124 47.0546C126.55 48.044 126.869 48.8508 127.061 49.4442L127.902 52.0438L125.238 52.6503L112.191 55.6239L109.625 56.2089L109.172 53.6161C109.122 53.3301 109.049 53.2315 109.038 53.2177C109.031 53.2086 109.025 53.2013 109.012 53.1923C108.998 53.1823 108.963 53.1596 108.894 53.1337C108.184 52.8675 107.441 52.7274 106.653 52.7147C104.226 52.974 102.721 53.8093 101.776 54.9725C100.781 56.1961 100.109 58.1448 100.103 61.161C100.182 63.6215 100.597 65.243 101.141 66.2362C101.58 67.0381 102.097 67.4327 102.748 67.6122C103.668 67.5731 104.46 67.3248 105.173 66.8778C106.061 66.3214 106.836 65.5775 107.497 64.6112L107.502 64.6034C108.24 63.5348 108.86 62.3251 109.356 60.9628L110.096 58.9276L112.215 59.369L125.263 62.0888L127.909 62.6405L127.154 65.2352C126.983 65.8213 126.61 66.8741 126.077 68.3085L126.073 68.3182C125.309 70.3465 123.652 72.7723 121.372 75.5155C118.927 78.4882 116.113 80.6745 112.909 81.9452L112.908 81.9442C109.337 83.3788 105.743 84.1151 102.14 84.1151C96.315 84.1151 91.1172 82.1332 86.6429 78.244L86.6117 78.2167C84.5031 76.3212 82.94 74.0821 81.9701 71.5106L81.971 71.5097C81.017 69.042 80.5433 66.4454 80.5433 63.7382C80.5433 60.9958 80.9145 58.2926 81.6546 55.6347C82.3705 53.064 83.2549 50.6928 84.3158 48.5311L84.3187 48.5263C85.6765 45.7772 87.196 43.3793 88.8929 41.3622C90.5611 39.3555 92.3446 37.6794 94.2523 36.368C96.1462 35.0581 98.1174 34.0693 100.164 33.4305C102.179 32.802 104.223 32.4833 106.289 32.4833Z" fill="#FFCB05" stroke="#3866C3" stroke-width="5"/>
<path d="M80.4043 36.1356L82.7256 89.5848L82.833 92.0486L80.3711 92.1893L64.5098 93.0955L61.9238 93.244L61.8682 90.6541L61.0899 54.8152L58.8789 55.324L55.1348 56.1844L55.8633 52.4139L57.5869 43.493L57.8379 42.1971L59.0498 41.6727L76.9151 33.949L80.2471 32.5086L80.4043 36.1356ZM68.6934 11.7693C70.6429 11.7694 72.4647 12.109 74.0752 12.8904L74.0742 12.8914C75.4994 13.5482 76.7508 14.3946 77.7666 15.4656C78.516 16.2384 79.1815 17.0511 79.6387 17.8924L79.8223 18.2547L79.8369 18.2869L79.8516 18.3201C80.2791 19.312 80.4775 20.3656 80.4776 21.449C80.4776 22.9873 80.1565 24.5104 79.5606 26.0027L79.5576 26.0106L79.5537 26.0184C78.9841 27.4168 78.2698 28.6765 77.3897 29.7654C76.5638 30.7872 75.4505 31.8205 73.999 32.1531L73.916 32.1727L73.832 32.1863C72.5866 32.3839 71.5121 32.5067 70.6973 32.5067C68.8517 32.5066 67.1172 32.1742 65.5645 31.4227C64.0043 30.6676 62.7355 29.5474 61.8037 28.0897C60.8926 26.6643 60.3618 25.0456 60.1602 23.2938L60.1445 23.1522V23.0086C60.1445 20.5459 60.7247 18.2165 61.8838 16.0594L61.8897 16.0486L61.8955 16.0369C63.2924 13.4993 65.5758 12.0477 68.4619 11.7801L68.5772 11.7693H68.6934Z" fill="#FFCB05" stroke="#3866C3" stroke-width="5"/>
<path d="M39.8223 23.5407C42.7545 23.5407 45.0065 23.6088 46.4072 23.7878L46.9551 23.8718L46.9883 23.8776C48.7942 24.2336 50.5078 24.8119 52.1211 25.6159L52.1201 25.6169C53.8233 26.4539 55.3316 27.5784 56.6348 28.9792H56.6338C57.9646 30.3605 59.0286 31.9783 59.835 33.8073L59.8428 33.8268C60.2615 34.7984 60.4697 35.8243 60.4697 36.8825C60.4697 40.3965 58.641 44.2669 55.6699 48.3532L55.6709 48.3542C52.7512 52.401 49.7879 55.9555 46.7793 59.0085L46.7803 59.0095C44.5578 61.2824 42.7384 63.0875 41.3369 64.4099L47.2607 85.822L47.7178 87.4724L46.3438 88.4948L37.1299 95.3483L34.374 97.3972L33.2705 94.1462L18.5029 50.6579C18.2041 50.9957 17.9808 51.2461 17.8438 51.3874L17.1074 52.1472H16.0488C15.2978 52.1471 14.7798 51.8173 14.5801 51.6745C14.3483 51.5087 14.1927 51.339 14.1162 51.2497C13.9594 51.0667 13.8554 50.894 13.8086 50.8141C13.7021 50.6325 13.6101 50.4379 13.541 50.2849C13.3934 49.9576 13.2152 49.5136 13.0117 48.9831L13.002 48.9597L12.9941 48.9362C12.6177 47.8931 12.1011 46.452 11.4443 44.614L11.4375 44.5954L11.4316 44.5778C10.804 42.7324 10.094 40.6923 9.30176 38.4577L8.73633 36.9118C8.23232 35.5536 7.90975 34.747 7.75098 34.4196L6.5166 31.8757L9.19336 30.9626C12.0364 29.9935 14.7049 29.0968 17.1982 28.2722L17.2051 28.2702C19.759 27.4334 22.4384 26.6482 25.2422 25.9128C28.0761 25.1451 30.803 24.5345 33.4209 24.0847V24.0856C35.5112 23.7224 37.6455 23.5407 39.8223 23.5407ZM40.5967 43.4802C38.6539 43.4802 37.024 43.8504 35.6475 44.5407L36.8506 49.0026C37.5526 48.1806 38.3092 47.2762 39.1191 46.2868C40.0384 45.1638 40.7022 44.2364 41.1484 43.4948C40.9635 43.4854 40.7796 43.4802 40.5967 43.4802Z" fill="#FFCB05" stroke="#3866C3" stroke-width="5"/>
</g>
<defs>
<filter id="filter0_d_17_379" x="0.0330811" y="0.0728226" width="384.189" height="117.474" filterUnits="userSpaceOnUse" color-interpolation-filters="sRGB">
<feFlood flood-opacity="0" result="BackgroundImageFix"/>
<feColorMatrix in="SourceAlpha" type="matrix" values="0 0 0 0 0 0 0 0 0 0 0 0 0 0 0 0 0 0 127 0" result="hardAlpha"/>
<feOffset dx="-2" dy="4"/>
<feGaussianBlur stdDeviation="0.5"/>
<feComposite in2="hardAlpha" operator="out"/>
<feColorMatrix type="matrix" values="0 0 0 0 0 0 0 0 0 0 0 0 0 0 0 0 0 0 0.64 0"/>
<feBlend mode="normal" in2="BackgroundImageFix" result="effect1_dropShadow_17_379"/>
<feBlend mode="normal" in="SourceGraphic" in2="effect1_dropShadow_17_379" result="shape"/>
</filter>
</defs>
</svg>
