<svg width="25" height="32" viewBox="0 0 25 32" fill="none" xmlns="http://www.w3.org/2000/svg">
<g clip-path="url(#clip0_72_67)">
<path fill-rule="evenodd" clip-rule="evenodd" d="M22.1497 24.625C22.0157 24.8571 21.768 25.0001 21.5 25H3.5C3.23219 24.9997 2.98484 24.8567 2.85106 24.6247C2.71727 24.3927 2.71734 24.1069 2.85125 23.875C4.27906 21.4066 6.47938 19.6366 9.04719 18.7975C6.43645 17.2433 5.18585 14.1364 5.99182 11.2069C6.79779 8.27741 9.46167 6.24745 12.5 6.24745C15.5383 6.24745 18.2022 8.27741 19.0082 11.2069C19.8142 14.1364 18.5635 17.2433 15.9528 18.7975C18.5206 19.6366 20.7209 21.4066 22.1488 23.875C22.283 24.1069 22.2834 24.3928 22.1497 24.625V24.625Z" fill="#9E9E47"/>
</g>
<defs>
<clipPath id="clip0_72_67">
<rect width="24" height="24" fill="white" transform="translate(0.5 4)"/>
</clipPath>
</defs>
</svg>
